<svg width="150" height="150" viewBox="0 0 150 150" fill="none" xmlns="http://www.w3.org/2000/svg">
<path d="M2.71888 122.636C14.4243 125.721 26.7347 125.679 38.4189 122.514C42.1072 121.418 41.4113 114.529 41.7244 111.606C42.3334 105.656 42.9597 99.7058 43.8644 93.808C44.6523 90.1105 46.5597 86.7452 49.3272 84.1697C52.3605 81.0106 55.1849 77.6574 57.7825 74.1313C59.5222 71.7826 64.1152 67.2766 62.0275 64.1972C61.5687 63.5263 60.8895 63.0372 60.1077 62.8147C59.3259 62.5923 58.491 62.6505 57.7477 62.9794C47.8658 67.3288 37.4794 70.4952 27.7541 75.1577C23.7875 77.0715 26.7451 83.2998 30.7987 81.3339C35.2699 79.1592 42.9771 76.1146 49.5534 73.5571C47.0655 76.6887 44.0905 79.368 41.5505 82.4299C36.4529 88.5713 36.3312 97.6529 35.5309 105.221C35.4091 106.265 34.9046 116.286 34.3478 116.408C24.5067 118.461 14.3317 118.294 4.56304 115.92C3.67501 115.692 2.73277 115.824 1.94112 116.286C1.14948 116.749 0.572429 117.505 0.335404 118.391C0.0986384 119.27 0.215563 120.206 0.661113 121C1.10666 121.793 1.84537 122.381 2.71888 122.636Z" fill="#B6FF40"/>
<path d="M115.473 82.0994C119.753 82.0994 138.09 75.5057 141.83 74.166C143.442 73.5784 144.914 72.6649 146.157 71.4825C147.399 70.3001 148.384 68.8742 149.05 67.294C149.708 65.7151 150.031 64.0169 149.998 62.3069C149.965 60.5968 149.577 58.9123 148.859 57.3599C147.578 54.643 145.367 52.4741 142.626 51.2456C139.885 50.017 136.795 49.81 133.914 50.6618C126.035 52.8886 118.044 54.7004 109.975 56.0899C105.574 55.9507 68.795 46.208 60.6877 43.7723C56.4948 42.5023 53.8678 43.6332 50.6318 45.3381C48.3353 46.556 19.4204 60.6481 17.2805 61.9529C16.5139 62.4403 15.9684 63.2081 15.7603 64.0923C15.5523 64.9765 15.6982 65.907 16.1671 66.6851C16.6548 67.4611 17.429 68.0134 18.3216 68.2218C19.2142 68.4303 20.153 68.2782 20.934 67.7985C22.9347 66.5633 51.4843 52.6625 53.8852 51.4099C56.6688 49.9485 57.1907 49.9137 58.6869 50.3487C62.5492 51.5143 104.112 62.9794 110.149 62.962H110.271C118.92 61.5671 127.477 59.6557 135.898 57.2381C137.232 56.9451 138.628 57.1563 139.816 57.831C141.004 58.5057 141.901 59.5962 142.333 60.8924C142.765 62.1886 142.702 63.5988 142.156 64.8514C141.611 66.104 140.621 67.1104 139.377 67.6767C127.321 72.0783 117.3 75.1055 115.542 75.1751C112.915 75.1751 97.8491 73.6093 94.2652 73.6441C92.7516 73.6441 71.857 91.4419 71.3698 92.0682C71.0171 92.5435 70.7914 93.101 70.7141 93.6878C70.6369 94.2746 70.7106 94.8714 70.9283 95.4218C71.146 95.9722 71.5006 96.458 71.9584 96.8332C72.4162 97.2083 72.9621 97.4605 73.5445 97.5659C75.0233 97.9312 103.121 108.005 107.696 109.605C110.689 110.649 114.516 113.415 113.194 117.051C112.846 118.148 112.146 119.099 111.202 119.756C110.258 120.414 109.124 120.741 107.975 120.687C94.8045 118.948 61.0008 108.509 59.2611 108.509C58.0048 108.362 56.7395 108.695 55.7173 109.44C54.6952 110.184 53.9913 111.287 53.746 112.528C53.0153 115.225 52.0932 129.56 52.0062 129.926C52.0062 130.761 51.0668 131.822 49.4314 132.831C40.3846 138.485 15.1754 139.981 5.34571 135.423C1.36164 133.562 -1.61336 139.738 2.38811 141.634C7.32904 143.913 14.8622 144.992 22.813 144.992C34.2954 144.992 46.6478 142.73 53.3111 138.59C57.7475 135.841 58.9479 132.727 59.1219 130.43C59.8352 127.716 60.0266 117.382 60.3049 115.607C62.1839 116.06 93.3605 125.681 107.192 127.559C109.904 127.839 112.631 127.187 114.924 125.71C117.217 124.234 118.938 122.02 119.805 119.435C122.502 111.971 116.76 105.517 110.097 103.185C105.452 101.55 84.0005 93.8602 80.9907 92.7468C85.7925 88.5713 93.1691 82.3082 95.483 80.5684C98.4406 80.6032 112.55 82.0472 115.473 82.0994Z" fill="#B6FF40"/>
<path d="M46.9265 17.815C46.4294 17.7357 45.9211 17.7652 45.4366 17.9013C44.952 18.0375 44.5028 18.2772 44.1198 18.6039C43.7369 18.9305 43.4294 19.3364 43.2185 19.7934C43.0077 20.2504 42.8985 20.7478 42.8985 21.2511C42.8985 21.7544 43.0077 22.2517 43.2185 22.7088C43.4294 23.1658 43.7369 23.5716 44.1198 23.8983C44.5028 24.225 44.952 24.4646 45.4366 24.6008C45.9211 24.737 46.4294 24.7665 46.9265 24.6871H79.982C80.1923 27.0846 80.8658 29.4184 81.9654 31.5592H62.5322C62.0351 31.4799 61.5268 31.5093 61.0423 31.6455C60.5577 31.7817 60.1085 32.0214 59.7255 32.348C59.3426 32.6747 59.0351 33.0805 58.8242 33.5376C58.6134 33.9946 58.5042 34.4919 58.5042 34.9952C58.5042 35.4986 58.6134 35.9959 58.8242 36.4529C59.0351 36.91 59.3426 37.3158 59.7255 37.6424C60.1085 37.9691 60.5577 38.2088 61.0423 38.345C61.5268 38.4812 62.0351 38.5106 62.5322 38.4313H88.0023C90.4339 40.1793 93.2449 41.3267 96.2051 41.7793C99.1654 42.232 102.191 41.9772 105.034 41.0357C107.876 40.0942 110.456 38.4928 112.561 36.3626C114.666 34.2325 116.236 31.6341 117.144 28.7802C118.051 25.9263 118.27 22.8981 117.782 19.9434C117.294 16.9888 116.113 14.1917 114.336 11.7813C112.559 9.37078 110.236 7.41541 107.558 6.07525C104.88 4.73508 101.923 4.04822 98.9281 4.0709H64.2545C63.7575 3.99157 63.2492 4.02101 62.7646 4.1572C62.2801 4.29338 61.8308 4.53307 61.4479 4.85972C61.065 5.18638 60.7575 5.59222 60.5466 6.04925C60.3358 6.50628 60.2266 7.00361 60.2266 7.50694C60.2266 8.01026 60.3358 8.5076 60.5466 8.96462C60.7575 9.42165 61.065 9.8275 61.4479 10.1541C61.8308 10.4808 62.2801 10.7205 62.7646 10.8567C63.2492 10.9929 63.7575 11.0223 64.2545 10.943H84.227C82.5496 12.9554 81.3111 15.2961 80.5909 17.815H46.9265ZM98.9455 10.943C101.316 10.9739 103.625 11.7051 105.581 13.0447C107.537 14.3843 109.054 16.2724 109.94 18.4717C110.826 20.6709 111.042 23.083 110.56 25.4046C110.079 27.7262 108.922 29.8536 107.234 31.5192C105.547 33.1849 103.405 34.3144 101.077 34.7657C98.7496 35.217 96.3405 34.97 94.1529 34.0557C91.9653 33.1414 90.097 31.6006 88.7828 29.6271C87.4686 27.6537 86.7673 25.3357 86.7671 22.9648C86.8083 19.7651 88.1071 16.7101 90.3828 14.4605C92.6585 12.2109 95.7281 10.9473 98.9281 10.943H98.9455Z" fill="#B6FF40"/>
</svg>
