<svg width="150" height="150" viewBox="0 0 150 150" fill="none" xmlns="http://www.w3.org/2000/svg">
<path d="M75 11.9775C87.4646 11.9775 99.6494 15.6737 110.013 22.5987C120.377 29.5237 128.455 39.3665 133.225 50.8823C137.995 62.3982 139.243 75.0699 136.811 87.295C134.38 99.5202 128.377 110.75 119.564 119.564C110.75 128.377 99.5202 134.38 87.295 136.811C75.0699 139.243 62.3982 137.995 50.8823 133.225C39.3665 128.455 29.5237 120.377 22.5987 110.013C15.6738 99.6494 11.9776 87.4646 11.9776 75C11.9987 58.2918 18.6453 42.2741 30.4597 30.4597C42.2741 18.6453 58.2919 11.9986 75 11.9775V11.9775ZM75 4C60.9575 4 47.2304 8.16407 35.5545 15.9657C23.8786 23.7672 14.7784 34.8559 9.40458 47.8295C4.03076 60.803 2.62473 75.0787 5.36428 88.8514C8.10382 102.624 14.8659 115.275 24.7954 125.205C34.725 135.134 47.3759 141.896 61.1486 144.636C74.9212 147.375 89.1969 145.969 102.17 140.595C115.144 135.222 126.233 126.121 134.034 114.445C141.836 102.77 146 89.0424 146 75C146 56.1696 138.52 38.1105 125.205 24.7954C111.889 11.4803 93.8303 4 75 4V4Z" fill="#B6FF40"/>
<path d="M75 114.218C67.8064 114.218 60.9074 111.36 55.8208 106.273C50.7341 101.187 47.8765 94.2875 47.8765 87.0939C47.8765 86.036 48.2967 85.0215 49.0447 84.2734C49.7928 83.5254 50.8073 83.1052 51.8652 83.1052C52.9231 83.1052 53.9377 83.5254 54.6857 84.2734C55.4337 85.0215 55.854 86.036 55.854 87.0939C55.854 92.1718 57.8712 97.0417 61.4617 100.632C65.0523 104.223 69.9222 106.24 75 106.24C80.0779 106.24 84.9478 104.223 88.5383 100.632C92.1289 97.0417 94.1461 92.1718 94.1461 87.0939C94.1461 86.036 94.5663 85.0215 95.3144 84.2734C96.0624 83.5254 97.077 83.1052 98.1349 83.1052C99.1927 83.1052 100.207 83.5254 100.955 84.2734C101.703 85.0215 102.124 86.036 102.124 87.0939C102.124 94.2875 99.266 101.187 94.1793 106.273C89.0927 111.36 82.1937 114.218 75 114.218V114.218Z" fill="#B6FF40"/>
<path d="M51.3386 60.9117C55.7445 60.9117 59.3161 57.34 59.3161 52.9342C59.3161 48.5283 55.7445 44.9566 51.3386 44.9566C46.9327 44.9566 43.3611 48.5283 43.3611 52.9342C43.3611 57.34 46.9327 60.9117 51.3386 60.9117Z" fill="#B6FF40"/>
<path d="M105.043 60.9117H92.2792C91.2213 60.9117 90.2067 60.4915 89.4587 59.7434C88.7106 58.9954 88.2904 57.9808 88.2904 56.923C88.2904 55.8651 88.7106 54.8505 89.4587 54.1025C90.2067 53.3544 91.2213 52.9342 92.2792 52.9342H105.043C106.101 52.9342 107.116 53.3544 107.864 54.1025C108.612 54.8505 109.032 55.8651 109.032 56.923C109.032 57.9808 108.612 58.9954 107.864 59.7434C107.116 60.4915 106.101 60.9117 105.043 60.9117V60.9117Z" fill="#B6FF40"/>
</svg>
