<svg width="150" height="150" viewBox="0 0 150 150" fill="none" xmlns="http://www.w3.org/2000/svg">
<path d="M87.9732 4.0001C70.3109 4.0001 53.3461 15.8969 39.1863 32.9319C25.115 49.8604 13.7552 72.1158 7.5212 94.3539C2.60372 103.086 0.717444 111.59 4.47846 118.747C8.26455 125.952 16.9051 130.67 30.4707 133.445C30.5635 133.465 30.6353 133.479 30.7285 133.497C63.7767 147.374 96.9625 152.651 127.219 132.672C127.584 132.432 127.897 132.123 128.142 131.762C128.387 131.401 128.558 130.995 128.645 130.568C128.733 130.141 128.735 129.701 128.652 129.272C128.568 128.844 128.401 128.437 128.16 128.074C127.919 127.71 127.609 127.398 127.247 127.155C126.884 126.912 126.478 126.743 126.05 126.657C125.623 126.572 125.182 126.572 124.754 126.657C124.327 126.742 123.92 126.911 123.558 127.154C95.4016 145.746 65.0612 140.903 32.6882 127.205C32.4727 127.113 32.248 127.044 32.0178 126.999C19.2059 124.415 12.6836 120.229 10.3061 115.705C7.92854 111.18 8.87494 105.201 13.4004 97.2935C13.5358 97.0498 13.6398 96.7898 13.7098 96.5199C19.6604 75.0699 30.7887 53.2922 44.2403 37.1092C57.2992 21.3987 72.427 11.2883 86.6839 10.7044L100.866 25.6087C100.101 27.0925 98.3934 30.5039 95.0386 35.6652C93.0344 38.7486 90.7279 41.9177 88.5405 44.3293C86.3532 46.7408 84.1454 48.3007 83.0739 48.6097C81.3331 49.1118 76.5357 48.3926 72.6048 47.1141C68.674 45.8356 65.5395 44.3293 65.5395 44.3293C64.9087 44.0308 64.1996 43.9398 63.5139 44.0696C62.8282 44.1993 62.2013 44.543 61.7232 45.0513C49.6445 57.6913 44.5414 76.1572 39.7536 94.4571C39.5633 95.1891 39.6301 95.9643 39.9429 96.6529C40.2557 97.3416 40.7956 97.9019 41.4721 98.2401C42.1486 98.5784 42.9207 98.6741 43.6594 98.5111C44.398 98.3482 45.0582 97.9366 45.5296 97.3451C55.6895 84.6584 67.4421 80.0424 81.0626 79.9654C94.6832 79.8878 110.182 84.6976 126.394 91.7238C126.796 91.9371 127.238 92.0651 127.691 92.0998C128.145 92.1344 128.601 92.0749 129.03 91.925C129.46 91.7751 129.854 91.5381 130.187 91.2287C130.521 90.9194 130.787 90.5444 130.968 90.1274C131.15 89.7104 131.244 89.2603 131.243 88.8054C131.243 88.3505 131.149 87.9006 130.966 87.4839C130.783 87.0672 130.517 86.6927 130.183 86.384C129.849 86.0753 129.454 85.839 129.024 85.6899C112.435 78.5002 96.2502 73.2785 81.0626 73.3642C69.7094 73.4285 58.886 76.6416 49.4491 84.1427C53.2304 71.2931 57.9278 59.7146 65.2301 51.2914C66.5739 51.8853 67.6095 52.4354 70.5935 53.4059C74.9804 54.8327 80.1393 56.3348 84.9305 54.953C88.28 53.987 90.8736 51.5937 93.4399 48.7644C96.0061 45.9351 98.4333 42.5421 100.557 39.2752C104.804 32.7415 107.88 26.5886 107.88 26.5886C108.186 25.9793 108.295 25.2902 108.194 24.6162C108.092 23.9421 107.784 23.3159 107.313 22.8238L90.3455 4.97996C90.0356 4.6665 89.666 4.4183 89.2585 4.25001C88.8511 4.08172 88.4141 3.99674 87.9732 4.0001V4.0001ZM127.065 22.0502C126.526 22.0495 125.995 22.1808 125.519 22.4325C125.042 22.6842 124.635 23.0487 124.331 23.4942L116.957 33.757C116.703 34.1092 116.52 34.508 116.42 34.9305C116.321 35.3531 116.305 35.7912 116.374 36.2199C116.444 36.6485 116.597 37.0593 116.825 37.4287C117.053 37.7982 117.352 38.1191 117.704 38.3731C118.056 38.627 118.455 38.8092 118.878 38.909C119.3 39.0089 119.738 39.0245 120.167 38.9551C120.596 38.8856 121.006 38.7324 121.376 38.5041C121.745 38.2759 122.066 37.9772 122.32 37.6249L129.695 27.3621C130.071 26.8726 130.302 26.2874 130.362 25.673C130.423 25.0586 130.309 24.4396 130.035 23.8864C129.761 23.3332 129.338 22.8679 128.813 22.5433C128.288 22.2187 127.682 22.0479 127.065 22.0502V22.0502ZM140.319 39.8941C139.907 39.9223 139.505 40.0272 139.132 40.2035L128.199 45.1544C127.399 45.51 126.773 46.1689 126.459 46.9862C126.144 47.8034 126.168 48.7121 126.523 49.5122C126.879 50.3124 127.538 50.9385 128.355 51.2528C129.172 51.5671 130.081 51.5439 130.881 51.1883L141.866 46.2374C142.598 45.9385 143.199 45.3865 143.558 44.6821C143.918 43.9777 144.012 43.1676 143.825 42.3992C143.638 41.6309 143.181 40.9553 142.537 40.4956C141.893 40.0358 141.106 39.8223 140.319 39.8941ZM130.984 61.2448C130.136 61.2846 129.335 61.6497 128.748 62.2643C128.162 62.8789 127.835 63.6959 127.835 64.5454C127.835 65.395 128.162 66.2119 128.748 66.8265C129.335 67.4411 130.136 67.8062 130.984 67.846L144.083 69.1353C144.533 69.2161 144.994 69.2027 145.438 69.096C145.882 68.9893 146.3 68.7916 146.663 68.5155C147.027 68.2393 147.33 67.8906 147.552 67.4915C147.774 67.0925 147.911 66.6516 147.954 66.1969C147.997 65.7422 147.945 65.2836 147.801 64.85C147.658 64.4163 147.426 64.0172 147.12 63.6778C146.815 63.3384 146.442 63.066 146.026 62.8781C145.61 62.6901 145.159 62.5905 144.702 62.5857L131.603 61.2964C131.501 61.2743 131.397 61.2571 131.294 61.2448C131.19 61.24 131.087 61.24 130.984 61.2448Z" fill="#B6FF40"/>
</svg>
